<svg width="34" height="34" viewBox="0 0 34 34" fill="none" xmlns="http://www.w3.org/2000/svg">
<rect width="26" height="13" rx="1" transform="matrix(1 0 0 -1 4 18)" fill="#2D4D32"/>
<path fill-rule="evenodd" clip-rule="evenodd" d="M3 20C2.44772 20 2 19.5523 2 19V4C2 3.44772 2.44772 3 3 3H31C31.5523 3 32 3.44772 32 4V19C32 19.5523 31.5523 20 31 20H3ZM5 18C4.44772 18 4 17.5523 4 17V6C4 5.44772 4.44772 5 5 5H29C29.5523 5 30 5.44771 30 6V17C30 17.5523 29.5523 18 29 18H5Z" fill="url(#paint0_linear_9_486)"/>
<path fill-rule="evenodd" clip-rule="evenodd" d="M26 13.5H8C7.72386 13.5 7.5 13.2761 7.5 13V10C7.5 9.72386 7.72386 9.5 8 9.5H26C26.2761 9.5 26.5 9.72386 26.5 10V13C26.5 13.2761 26.2761 13.5 26 13.5ZM8 14C7.44772 14 7 13.5523 7 13V10C7 9.44772 7.44772 9 8 9H26C26.5523 9 27 9.44772 27 10V13C27 13.5523 26.5523 14 26 14H8Z" fill="url(#paint1_linear_9_486)"/>
<path d="M11 15.1C11 15.3209 11.1791 15.5 11.4 15.5H12.6C12.8209 15.5 13 15.3209 13 15.1V12.9C13 12.6791 12.8209 12.5 12.6 12.5H11.4C11.1791 12.5 11 12.6791 11 12.9V15.1Z" fill="url(#paint2_linear_9_486)"/>
<path d="M11 10.1C11 10.3209 11.1791 10.5 11.4 10.5H12.6C12.8209 10.5 13 10.3209 13 10.1V7.9C13 7.67909 12.8209 7.5 12.6 7.5H11.4C11.1791 7.5 11 7.67909 11 7.9V10.1Z" fill="url(#paint3_linear_9_486)"/>
<path d="M16 15.1C16 15.3209 16.1791 15.5 16.4 15.5H17.6C17.8209 15.5 18 15.3209 18 15.1V12.9C18 12.6791 17.8209 12.5 17.6 12.5H16.4C16.1791 12.5 16 12.6791 16 12.9V15.1Z" fill="url(#paint4_linear_9_486)"/>
<path d="M16 10.1C16 10.3209 16.1791 10.5 16.4 10.5H17.6C17.8209 10.5 18 10.3209 18 10.1V7.9C18 7.67909 17.8209 7.5 17.6 7.5H16.4C16.1791 7.5 16 7.67909 16 7.9V10.1Z" fill="url(#paint5_linear_9_486)"/>
<path d="M21 15.1C21 15.3209 21.1791 15.5 21.4 15.5H22.6C22.8209 15.5 23 15.3209 23 15.1V12.9C23 12.6791 22.8209 12.5 22.6 12.5H21.4C21.1791 12.5 21 12.6791 21 12.9V15.1Z" fill="url(#paint6_linear_9_486)"/>
<path d="M21 10.1C21 10.3209 21.1791 10.5 21.4 10.5H22.6C22.8209 10.5 23 10.3209 23 10.1V7.9C23 7.67909 22.8209 7.5 22.6 7.5H21.4C21.1791 7.5 21 7.67909 21 7.9V10.1Z" fill="url(#paint7_linear_9_486)"/>
<defs>
<linearGradient id="paint0_linear_9_486" x1="29.5" y1="19.5" x2="-3" y2="-6" gradientUnits="userSpaceOnUse">
<stop stop-color="#47DE57"/>
<stop offset="1" stop-color="#2E3D45"/>
</linearGradient>
<linearGradient id="paint1_linear_9_486" x1="29.5" y1="19.5" x2="-3" y2="-6" gradientUnits="userSpaceOnUse">
<stop stop-color="#47DE57"/>
<stop offset="1" stop-color="#2E3D45"/>
</linearGradient>
<linearGradient id="paint2_linear_9_486" x1="29.5" y1="19.5" x2="-3" y2="-6" gradientUnits="userSpaceOnUse">
<stop stop-color="#47DE57"/>
<stop offset="1" stop-color="#2E3D45"/>
</linearGradient>
<linearGradient id="paint3_linear_9_486" x1="29.5" y1="19.5" x2="-3" y2="-6" gradientUnits="userSpaceOnUse">
<stop stop-color="#47DE57"/>
<stop offset="1" stop-color="#2E3D45"/>
</linearGradient>
<linearGradient id="paint4_linear_9_486" x1="29.5" y1="19.5" x2="-3" y2="-6" gradientUnits="userSpaceOnUse">
<stop stop-color="#47DE57"/>
<stop offset="1" stop-color="#2E3D45"/>
</linearGradient>
<linearGradient id="paint5_linear_9_486" x1="29.5" y1="19.5" x2="-3" y2="-6" gradientUnits="userSpaceOnUse">
<stop stop-color="#47DE57"/>
<stop offset="1" stop-color="#2E3D45"/>
</linearGradient>
<linearGradient id="paint6_linear_9_486" x1="29.5" y1="19.5" x2="-3" y2="-6" gradientUnits="userSpaceOnUse">
<stop stop-color="#47DE57"/>
<stop offset="1" stop-color="#2E3D45"/>
</linearGradient>
<linearGradient id="paint7_linear_9_486" x1="29.5" y1="19.5" x2="-3" y2="-6" gradientUnits="userSpaceOnUse">
<stop stop-color="#47DE57"/>
<stop offset="1" stop-color="#2E3D45"/>
</linearGradient>
</defs>
</svg>
