<svg width="34" height="34" viewBox="0 0 34 34" fill="none" xmlns="http://www.w3.org/2000/svg">
<path d="M2.02201 17.3593C1.80651 15.5729 3.20109 14 5.00041 14H28.9997C30.7991 14 32.1936 15.5729 31.9781 17.3593L30.6508 28.3622C30.469 29.8691 29.1903 31.0029 27.6724 31.0029H6.32772C4.80983 31.0029 3.53111 29.8691 3.34932 28.3622L2.02201 17.3593Z" fill="url(#paint0_linear_9_730)"/>
<path d="M22 20.0039C22 21.1085 22.8954 22.0039 24 22.0039V22.0039C25.1046 22.0039 26 21.1085 26 20.0039V20.0039C26 18.8993 25.1046 18.0039 24 18.0039V18.0039C22.8954 18.0039 22 18.8993 22 20.0039V20.0039Z" fill="#35353A"/>
<path d="M12 20.0039C12 21.1085 12.8954 22.0039 14 22.0039V22.0039C15.1046 22.0039 16 21.1085 16 20.0039V20.0039C16 18.8993 15.1046 18.0039 14 18.0039V18.0039C12.8954 18.0039 12 18.8993 12 20.0039V20.0039Z" fill="#35353A"/>
<path d="M17 20.0039C17 21.1085 17.8954 22.0039 19 22.0039V22.0039C20.1046 22.0039 21 21.1085 21 20.0039V20.0039C21 18.8993 20.1046 18.0039 19 18.0039V18.0039C17.8954 18.0039 17 18.8993 17 20.0039V20.0039Z" fill="#35353A"/>
<path d="M7 20.0039C7 21.1085 7.89543 22.0039 9 22.0039V22.0039C10.1046 22.0039 11 21.1085 11 20.0039V20.0039C11 18.8993 10.1046 18.0039 9 18.0039V18.0039C7.89543 18.0039 7 18.8993 7 20.0039V20.0039Z" fill="#35353A"/>
<path d="M22 25.0039C22 26.1085 22.8954 27.0039 24 27.0039V27.0039C25.1046 27.0039 26 26.1085 26 25.0039V25.0039C26 23.8993 25.1046 23.0039 24 23.0039V23.0039C22.8954 23.0039 22 23.8993 22 25.0039V25.0039Z" fill="#35353A"/>
<path d="M12 25.0039C12 26.1085 12.8954 27.0039 14 27.0039V27.0039C15.1046 27.0039 16 26.1085 16 25.0039V25.0039C16 23.8993 15.1046 23.0039 14 23.0039V23.0039C12.8954 23.0039 12 23.8993 12 25.0039V25.0039Z" fill="#35353A"/>
<path d="M17 25.0039C17 26.1085 17.8954 27.0039 19 27.0039V27.0039C20.1046 27.0039 21 26.1085 21 25.0039V25.0039C21 23.8993 20.1046 23.0039 19 23.0039V23.0039C17.8954 23.0039 17 23.8993 17 25.0039V25.0039Z" fill="#35353A"/>
<path d="M7 25.0039C7 26.1085 7.89543 27.0039 9 27.0039V27.0039C10.1046 27.0039 11 26.1085 11 25.0039V25.0039C11 23.8993 10.1046 23.0039 9 23.0039V23.0039C7.89543 23.0039 7 23.8993 7 25.0039V25.0039Z" fill="#35353A"/>
<defs>
<linearGradient id="paint0_linear_9_730" x1="32" y1="20.0218" x2="8.5868" y2="45.3245" gradientUnits="userSpaceOnUse">
<stop stop-color="#5C5C5C"/>
<stop offset="1" stop-color="#2E3D45"/>
</linearGradient>
</defs>
</svg>
