<svg width="34" height="34" viewBox="0 0 34 34" fill="none" xmlns="http://www.w3.org/2000/svg">
<path d="M2.02201 16.6407C1.80651 18.4271 3.20109 20 5.00041 20H28.9997C30.7991 20 32.1936 18.4271 31.9781 16.6407L30.6508 5.63785C30.469 4.13088 29.1903 2.99714 27.6724 2.99714H6.32772C4.80983 2.99714 3.53111 4.13088 3.34932 5.63785L2.02201 16.6407Z" fill="url(#paint0_linear_9_729)"/>
<path d="M22 13.9961C22 12.8915 22.8954 11.9961 24 11.9961V11.9961C25.1046 11.9961 26 12.8915 26 13.9961V13.9961C26 15.1007 25.1046 15.9961 24 15.9961V15.9961C22.8954 15.9961 22 15.1007 22 13.9961V13.9961Z" fill="#35353A"/>
<path d="M12 13.9961C12 12.8915 12.8954 11.9961 14 11.9961V11.9961C15.1046 11.9961 16 12.8915 16 13.9961V13.9961C16 15.1007 15.1046 15.9961 14 15.9961V15.9961C12.8954 15.9961 12 15.1007 12 13.9961V13.9961Z" fill="#35353A"/>
<path d="M17 13.9961C17 12.8915 17.8954 11.9961 19 11.9961V11.9961C20.1046 11.9961 21 12.8915 21 13.9961V13.9961C21 15.1007 20.1046 15.9961 19 15.9961V15.9961C17.8954 15.9961 17 15.1007 17 13.9961V13.9961Z" fill="#35353A"/>
<path d="M7 13.9961C7 12.8915 7.89543 11.9961 9 11.9961V11.9961C10.1046 11.9961 11 12.8915 11 13.9961V13.9961C11 15.1007 10.1046 15.9961 9 15.9961V15.9961C7.89543 15.9961 7 15.1007 7 13.9961V13.9961Z" fill="#35353A"/>
<path d="M22 8.99609C22 7.89152 22.8954 6.99609 24 6.99609V6.99609C25.1046 6.99609 26 7.89152 26 8.99609V8.99609C26 10.1007 25.1046 10.9961 24 10.9961V10.9961C22.8954 10.9961 22 10.1007 22 8.99609V8.99609Z" fill="#35353A"/>
<path d="M12 8.99609C12 7.89152 12.8954 6.99609 14 6.99609V6.99609C15.1046 6.99609 16 7.89152 16 8.99609V8.99609C16 10.1007 15.1046 10.9961 14 10.9961V10.9961C12.8954 10.9961 12 10.1007 12 8.99609V8.99609Z" fill="#35353A"/>
<path d="M17 8.99609C17 7.89152 17.8954 6.99609 19 6.99609V6.99609C20.1046 6.99609 21 7.89152 21 8.99609V8.99609C21 10.1007 20.1046 10.9961 19 10.9961V10.9961C17.8954 10.9961 17 10.1007 17 8.99609V8.99609Z" fill="#35353A"/>
<path d="M7 8.99609C7 7.89152 7.89543 6.99609 9 6.99609V6.99609C10.1046 6.99609 11 7.89152 11 8.99609V8.99609C11 10.1007 10.1046 10.9961 9 10.9961V10.9961C7.89543 10.9961 7 10.1007 7 8.99609V8.99609Z" fill="#35353A"/>
<defs>
<linearGradient id="paint0_linear_9_729" x1="32" y1="13.9782" x2="8.5868" y2="-11.3245" gradientUnits="userSpaceOnUse">
<stop stop-color="#5C5C5C"/>
<stop offset="1" stop-color="#2E3D45"/>
</linearGradient>
</defs>
</svg>
