<svg width="34" height="34" viewBox="0 0 34 34" fill="none" xmlns="http://www.w3.org/2000/svg">
<rect x="4" y="5" width="26" height="13" rx="1" fill="#343434"/>
<path fill-rule="evenodd" clip-rule="evenodd" d="M3 20C2.44772 20 2 19.5523 2 19V4C2 3.44772 2.44772 3 3 3H31C31.5523 3 32 3.44772 32 4V19C32 19.5523 31.5523 20 31 20H3ZM5 18C4.44772 18 4 17.5523 4 17V6C4 5.44772 4.44772 5 5 5H29C29.5523 5 30 5.44771 30 6V17C30 17.5523 29.5523 18 29 18H5Z" fill="url(#paint0_linear_9_454)"/>
<rect x="0.25" y="-0.25" width="19.5" height="4.5" rx="0.75" transform="matrix(1 0 0 -1 7 13.5)" stroke="#5B5C5C" stroke-width="0.5"/>
<rect width="2" height="3" rx="0.4" transform="matrix(1 0 0 -1 11 15.5)" fill="#5B5C5C"/>
<rect width="2" height="3" rx="0.4" transform="matrix(1 0 0 -1 11 10.5)" fill="#5B5C5C"/>
<rect width="2" height="3" rx="0.4" transform="matrix(1 0 0 -1 16 15.5)" fill="#5B5C5C"/>
<rect width="2" height="3" rx="0.4" transform="matrix(1 0 0 -1 16 10.5)" fill="#5B5C5C"/>
<rect width="2" height="3" rx="0.4" transform="matrix(1 0 0 -1 21 15.5)" fill="#5B5C5C"/>
<rect width="2" height="3" rx="0.4" transform="matrix(1 0 0 -1 21 10.5)" fill="#5B5C5C"/>
<defs>
<linearGradient id="paint0_linear_9_454" x1="31.5" y1="19" x2="2" y2="1" gradientUnits="userSpaceOnUse">
<stop stop-color="#5C5C5C"/>
<stop offset="1" stop-color="#2E3D45"/>
</linearGradient>
</defs>
</svg>
