<svg width="34" height="34" viewBox="0 0 34 34" fill="none" xmlns="http://www.w3.org/2000/svg">
<path d="M2.02186 17.3593C1.80636 15.5729 3.20094 14 5.00026 14H28.9996C30.7989 14 32.1935 15.5729 31.978 17.3593L30.6507 28.3622C30.4689 29.8691 29.1902 31.0029 27.6723 31.0029H6.32757C4.80968 31.0029 3.53095 29.8691 3.34916 28.3622L2.02186 17.3593Z" fill="url(#paint0_linear_9_695)"/>
<path d="M22.5 20.0039C22.5 21.1085 23.3954 22.0039 24.5 22.0039V22.0039C25.6046 22.0039 26.5 21.1085 26.5 20.0039V20.0039C26.5 18.8993 25.6046 18.0039 24.5 18.0039V18.0039C23.3954 18.0039 22.5 18.8993 22.5 20.0039V20.0039Z" fill="#512C2C"/>
<path d="M12.5 20.0039C12.5 21.1085 13.3954 22.0039 14.5 22.0039V22.0039C15.6046 22.0039 16.5 21.1085 16.5 20.0039V20.0039C16.5 18.8993 15.6046 18.0039 14.5 18.0039V18.0039C13.3954 18.0039 12.5 18.8993 12.5 20.0039V20.0039Z" fill="#512C2C"/>
<path d="M17.5 20.0039C17.5 21.1085 18.3954 22.0039 19.5 22.0039V22.0039C20.6046 22.0039 21.5 21.1085 21.5 20.0039V20.0039C21.5 18.8993 20.6046 18.0039 19.5 18.0039V18.0039C18.3954 18.0039 17.5 18.8993 17.5 20.0039V20.0039Z" fill="#512C2C"/>
<path d="M7.5 20.0039C7.5 21.1085 8.39543 22.0039 9.5 22.0039V22.0039C10.6046 22.0039 11.5 21.1085 11.5 20.0039V20.0039C11.5 18.8993 10.6046 18.0039 9.5 18.0039V18.0039C8.39543 18.0039 7.5 18.8993 7.5 20.0039V20.0039Z" fill="#512C2C"/>
<path d="M22.5 25.0039C22.5 26.1085 23.3954 27.0039 24.5 27.0039V27.0039C25.6046 27.0039 26.5 26.1085 26.5 25.0039V25.0039C26.5 23.8993 25.6046 23.0039 24.5 23.0039V23.0039C23.3954 23.0039 22.5 23.8993 22.5 25.0039V25.0039Z" fill="#512C2C"/>
<path d="M12.5 25.0039C12.5 26.1085 13.3954 27.0039 14.5 27.0039V27.0039C15.6046 27.0039 16.5 26.1085 16.5 25.0039V25.0039C16.5 23.8993 15.6046 23.0039 14.5 23.0039V23.0039C13.3954 23.0039 12.5 23.8993 12.5 25.0039V25.0039Z" fill="#512C2C"/>
<path d="M17.5 25.0039C17.5 26.1085 18.3954 27.0039 19.5 27.0039V27.0039C20.6046 27.0039 21.5 26.1085 21.5 25.0039V25.0039C21.5 23.8993 20.6046 23.0039 19.5 23.0039V23.0039C18.3954 23.0039 17.5 23.8993 17.5 25.0039V25.0039Z" fill="#512C2C"/>
<path d="M7.5 25.0039C7.5 26.1085 8.39543 27.0039 9.5 27.0039V27.0039C10.6046 27.0039 11.5 26.1085 11.5 25.0039V25.0039C11.5 23.8993 10.6046 23.0039 9.5 23.0039V23.0039C8.39543 23.0039 7.5 23.8993 7.5 25.0039V25.0039Z" fill="#512C2C"/>
<defs>
<linearGradient id="paint0_linear_9_695" x1="31" y1="12.5" x2="-1" y2="35" gradientUnits="userSpaceOnUse">
<stop stop-color="#FF3838"/>
<stop offset="1" stop-color="#2E3D45"/>
</linearGradient>
</defs>
</svg>
