<svg width="34" height="34" viewBox="0 0 34 34" fill="none" xmlns="http://www.w3.org/2000/svg">
<path d="M2.02186 16.6407C1.80636 18.4271 3.20094 20 5.00026 20H28.9996C30.7989 20 32.1935 18.4271 31.978 16.6407L30.6507 5.63785C30.4689 4.13088 29.1902 2.99714 27.6723 2.99714H6.32757C4.80968 2.99714 3.53095 4.13088 3.34916 5.63785L2.02186 16.6407Z" fill="url(#paint0_linear_9_694)"/>
<path d="M22.5 13.9961C22.5 12.8915 23.3954 11.9961 24.5 11.9961V11.9961C25.6046 11.9961 26.5 12.8915 26.5 13.9961V13.9961C26.5 15.1007 25.6046 15.9961 24.5 15.9961V15.9961C23.3954 15.9961 22.5 15.1007 22.5 13.9961V13.9961Z" fill="#512C2C"/>
<path d="M12.5 13.9961C12.5 12.8915 13.3954 11.9961 14.5 11.9961V11.9961C15.6046 11.9961 16.5 12.8915 16.5 13.9961V13.9961C16.5 15.1007 15.6046 15.9961 14.5 15.9961V15.9961C13.3954 15.9961 12.5 15.1007 12.5 13.9961V13.9961Z" fill="#512C2C"/>
<path d="M17.5 13.9961C17.5 12.8915 18.3954 11.9961 19.5 11.9961V11.9961C20.6046 11.9961 21.5 12.8915 21.5 13.9961V13.9961C21.5 15.1007 20.6046 15.9961 19.5 15.9961V15.9961C18.3954 15.9961 17.5 15.1007 17.5 13.9961V13.9961Z" fill="#512C2C"/>
<path d="M7.5 13.9961C7.5 12.8915 8.39543 11.9961 9.5 11.9961V11.9961C10.6046 11.9961 11.5 12.8915 11.5 13.9961V13.9961C11.5 15.1007 10.6046 15.9961 9.5 15.9961V15.9961C8.39543 15.9961 7.5 15.1007 7.5 13.9961V13.9961Z" fill="#512C2C"/>
<path d="M22.5 8.99609C22.5 7.89152 23.3954 6.99609 24.5 6.99609V6.99609C25.6046 6.99609 26.5 7.89152 26.5 8.99609V8.99609C26.5 10.1007 25.6046 10.9961 24.5 10.9961V10.9961C23.3954 10.9961 22.5 10.1007 22.5 8.99609V8.99609Z" fill="#512C2C"/>
<path d="M12.5 8.99609C12.5 7.89152 13.3954 6.99609 14.5 6.99609V6.99609C15.6046 6.99609 16.5 7.89152 16.5 8.99609V8.99609C16.5 10.1007 15.6046 10.9961 14.5 10.9961V10.9961C13.3954 10.9961 12.5 10.1007 12.5 8.99609V8.99609Z" fill="#512C2C"/>
<path d="M17.5 8.99609C17.5 7.89152 18.3954 6.99609 19.5 6.99609V6.99609C20.6046 6.99609 21.5 7.89152 21.5 8.99609V8.99609C21.5 10.1007 20.6046 10.9961 19.5 10.9961V10.9961C18.3954 10.9961 17.5 10.1007 17.5 8.99609V8.99609Z" fill="#512C2C"/>
<path d="M7.5 8.99609C7.5 7.89152 8.39543 6.99609 9.5 6.99609V6.99609C10.6046 6.99609 11.5 7.89152 11.5 8.99609V8.99609C11.5 10.1007 10.6046 10.9961 9.5 10.9961V10.9961C8.39543 10.9961 7.5 10.1007 7.5 8.99609V8.99609Z" fill="#512C2C"/>
<defs>
<linearGradient id="paint0_linear_9_694" x1="31" y1="21.5" x2="-1" y2="-0.999999" gradientUnits="userSpaceOnUse">
<stop stop-color="#FF3838"/>
<stop offset="1" stop-color="#2E3D45"/>
</linearGradient>
</defs>
</svg>
