<svg width="634" height="55" viewBox="0 0 634 55" fill="none" xmlns="http://www.w3.org/2000/svg">
<g filter="url(#filter0_d_1_35290)">
<path d="M630 50.0002C628.009 49.3011 610.089 40.9107 599.139 43.0083C588.188 45.1059 584.703 46.9702 578.232 40.6774C571.762 34.3847 570.766 36.0161 563.797 36.2492C556.829 36.4823 551.851 36.2493 548.367 33.6856C544.882 31.1219 541.398 30.1897 533.434 31.1219C525.469 32.0542 524.972 32.5202 522.981 29.2573C520.99 25.9944 516.012 21.7992 510.039 22.7315C504.066 23.6637 502.263 21.7985 500.581 20.6338C497.5 18.5002 493.613 19.2354 491.124 21.5661C488.635 23.8967 484.155 24.5963 477.684 23.6639C471.213 22.7315 471.711 26.2276 467.231 26.4607C462.751 26.6937 462 26.0002 458.271 24.5961C453.21 22.6902 448.814 16.6715 445.827 21.5661C442.841 26.4607 427.5 39.0002 421.934 32.2873C417.185 26.5593 416.127 16.5166 414.966 12.9429C414.497 11.5002 411.375 4.00054 408 8.50024C402 16.5002 396 11.0002 393.562 7.11633C392.233 5.00024 387 1.00024 383.109 7.81553C380.519 12.3514 374.647 25.7617 369.171 23.6639C363.696 21.5661 363.519 14.3213 362.7 13.8754C356.5 10.5 358.975 25.7617 353.5 24.5961C348.025 23.4306 331.473 9.5 325.5 9.5C320.721 9.5 311 31.1219 303.5 31.1217C244.5 39 233.5 9.5 213 9.5C177.5 12 191.5 45.9998 3.5 51" stroke="#2A85FE"/>
</g>
<defs>
<filter id="filter0_d_1_35290" x="0.486328" y="0.510742" width="632.68" height="53.9893" filterUnits="userSpaceOnUse" color-interpolation-filters="sRGB">
<feFlood flood-opacity="0" result="BackgroundImageFix"/>
<feColorMatrix in="SourceAlpha" type="matrix" values="0 0 0 0 0 0 0 0 0 0 0 0 0 0 0 0 0 0 127 0" result="hardAlpha"/>
<feOffset/>
<feGaussianBlur stdDeviation="1.5"/>
<feComposite in2="hardAlpha" operator="out"/>
<feColorMatrix type="matrix" values="0 0 0 0 0.0416437 0 0 0 0 0.445853 0 0 0 0 0.983317 0 0 0 1 0"/>
<feBlend mode="normal" in2="BackgroundImageFix" result="effect1_dropShadow_1_35290"/>
<feBlend mode="normal" in="SourceGraphic" in2="effect1_dropShadow_1_35290" result="shape"/>
</filter>
</defs>
</svg>
